SplineFontDB: 3.2
FontName: Untitled1
FullName: Untitled1
FamilyName: Untitled1
Weight: Regular
Copyright: Copyright (c) 2024, Howard
UComments: "2024-10-30: Created with FontForge (http://fontforge.org)"
Version: 001.000
ItalicAngle: 0
UnderlinePosition: -100
UnderlineWidth: 50
Ascent: 800
Descent: 200
InvalidEm: 0
LayerCount: 2
Layer: 0 0 "Back" 1
Layer: 1 0 "Fore" 0
XUID: [1021 808 -652472042 15376396]
StyleMap: 0x0000
FSType: 0
OS2Version: 0
OS2_WeightWidthSlopeOnly: 0
OS2_UseTypoMetrics: 1
CreationTime: 1730281885
ModificationTime: 1731279372
OS2TypoAscent: 0
OS2TypoAOffset: 1
OS2TypoDescent: 0
OS2TypoDOffset: 1
OS2TypoLinegap: 90
OS2WinAscent: 0
OS2WinAOffset: 1
OS2WinDescent: 0
OS2WinDOffset: 1
HheadAscent: 0
HheadAOffset: 1
HheadDescent: 0
HheadDOffset: 1
DEI: 91125
Encoding: ISO8859-1
UnicodeInterp: none
NameList: AGL For New Fonts
DisplaySize: -48
AntiAlias: 1
FitToEm: 0
WinInfo: 0 21 8
BeginChars: 256 69

StartChar: a
Encoding: 97 97 0
Width: 375
Flags: HW
LayerCount: 2
Fore
SplineSet
158.275390625 799 m 4
 77.3310546875 799 1.0458984375 741.6171875 0 658.032226562 c 4
 -1.2177734375 560.727539062 69.4169921875 503.083007812 153.405273438 500.84765625 c 4
 247.15234375 498.352539062 301.940429688 564.469726562 301.940429688 655.537109375 c 4
 301.940429688 739.158203125 225.237304688 799 158.275390625 799 c 4
 155.83984375 716.665039062 l 5
 183.842773438 716.665039062 228.00390625 695.447265625 226.455078125 643.0625 c 4
 225.237304688 601.89453125 197.237304688 582.03125 153.405273438 583.182617188 c 4
 105.922851562 584.4296875 77.6826171875 616.956054688 80.35546875 658.032226562 c 4
 84.0078125 714.169921875 155.83984375 716.665039062 155.83984375 716.665039062 c 4
 155.83984375 716.665039062 163.14453125 799 158.275390625 799 c 4
EndSplineSet
Validated: 524325
EndChar

StartChar: b
Encoding: 98 98 1
Width: 375
Flags: HW
LayerCount: 2
Fore
SplineSet
0 801 m 5
 246 801 l 5
 246 252 l 5
 0 252 l 5
 0 801 l 5
EndSplineSet
Validated: 1
EndChar

StartChar: c
Encoding: 99 99 2
Width: 600
Flags: HW
LayerCount: 2
Fore
SplineSet
501 801 m 5
 501 555 l 5
 0 555 l 1
 0 801 l 1
 501 801 l 5
EndSplineSet
Validated: 1
EndChar

StartChar: d
Encoding: 100 100 3
Width: 600
Flags: HW
LayerCount: 2
Fore
SplineSet
258 552 m 1
 504 552 l 1
 501 294 l 1
 255 294 l 1
 258 552 l 1
504 798 m 1
 504 552 l 1
 0 555 l 1
 0 801 l 1
 504 798 l 1
EndSplineSet
Validated: 5
EndChar

StartChar: e
Encoding: 101 101 4
Width: 600
Flags: HW
LayerCount: 2
Fore
SplineSet
1.0517578125 628.051757812 m 5
 175 802 l 5
 563.201171875 413.798828125 l 5
 389.252929688 239.850585938 l 5
 1.0517578125 628.051757812 l 5
EndSplineSet
Validated: 1
EndChar

StartChar: i
Encoding: 105 105 5
Width: 600
Flags: HW
LayerCount: 2
Fore
SplineSet
387.051757812 801.948242188 m 5
 561 628 l 5
 172.798828125 239.798828125 l 5
 -1.1494140625 413.747070312 l 5
 387.051757812 801.948242188 l 5
EndSplineSet
Validated: 1
EndChar

StartChar: f
Encoding: 102 102 6
Width: 600
Flags: HW
LayerCount: 2
Fore
SplineSet
247 554 m 5
 247 800 l 5
 505 797 l 5
 505 551 l 5
 247 554 l 5
1 800 m 5
 247 800 l 5
 244 296 l 5
 -2 296 l 5
 1 800 l 5
EndSplineSet
Validated: 5
EndChar

StartChar: g
Encoding: 103 103 7
Width: 600
Flags: HW
LayerCount: 2
Fore
SplineSet
2 552 m 5
 504 552 l 1
 501 294 l 1
 -1 294 l 5
 2 552 l 5
504 798 m 1
 504 552 l 1
 0 555 l 1
 0 801 l 1
 504 798 l 1
EndSplineSet
Validated: 5
EndChar

StartChar: h
Encoding: 104 104 8
Width: 600
Flags: HW
LayerCount: 2
Fore
SplineSet
250 545 m 1
 250 299 l 1
 508 299 l 1
 508 548 l 1
 250 545 l 1
0 298 m 1
 250 299 l 1
 247 803 l 1
 1 803 l 1
 0 298 l 1
EndSplineSet
Validated: 5
EndChar

StartChar: j
Encoding: 106 106 9
Width: 600
Flags: HW
LayerCount: 2
Fore
SplineSet
257 544 m 5
 257 298 l 5
 -1 301 l 5
 -1 547 l 5
 257 544 l 5
503 298 m 5
 257 298 l 5
 260 802 l 5
 506 802 l 5
 503 298 l 5
EndSplineSet
Validated: 5
EndChar

StartChar: k
Encoding: 107 107 10
Width: 375
Flags: HW
LayerCount: 2
Fore
SplineSet
158.275390625 298.15234375 m 4
 77.3310546875 298.15234375 1.0458984375 240.76953125 0 157.184570312 c 4
 -1.2177734375 59.8798828125 69.4169921875 2.2353515625 153.405273438 0 c 4
 247.15234375 -2.4951171875 301.940429688 63.6220703125 301.940429688 154.689453125 c 4
 301.940429688 238.310546875 225.237304688 298.15234375 158.275390625 298.15234375 c 4
 155.83984375 215.817382812 l 5
 183.842773438 215.817382812 228.00390625 194.599609375 226.455078125 142.21484375 c 4
 225.237304688 101.046875 197.237304688 81.18359375 153.405273438 82.3349609375 c 4
 105.922851562 83.58203125 77.6826171875 116.108398438 80.35546875 157.184570312 c 4
 84.0078125 213.322265625 155.83984375 215.817382812 155.83984375 215.817382812 c 4
 155.83984375 215.817382812 163.14453125 298.15234375 158.275390625 298.15234375 c 4
158.275390625 799 m 0
 77.3310546875 799 1.0458984375 741.6171875 0 658.032226562 c 0
 -1.2177734375 560.727539062 69.4169921875 503.083007812 153.405273438 500.84765625 c 0
 247.15234375 498.352539062 301.940429688 564.469726562 301.940429688 655.537109375 c 0
 301.940429688 739.158203125 225.237304688 799 158.275390625 799 c 0
 155.83984375 716.665039062 l 1
 183.842773438 716.665039062 228.00390625 695.447265625 226.455078125 643.0625 c 0
 225.237304688 601.89453125 197.237304688 582.03125 153.405273438 583.182617188 c 0
 105.922851562 584.4296875 77.6826171875 616.956054688 80.35546875 658.032226562 c 0
 84.0078125 714.169921875 155.83984375 716.665039062 155.83984375 716.665039062 c 0
 155.83984375 716.665039062 163.14453125 799 158.275390625 799 c 0
EndSplineSet
Validated: 524325
EndChar

StartChar: l
Encoding: 108 108 11
Width: 375
Flags: HW
LayerCount: 2
Fore
SplineSet
0 801 m 1
 246 801 l 1
 246 246 l 5
 0 246 l 5
 0 801 l 1
0 246 m 1
 246 246 l 1
 246 0 l 1
 0 0 l 1
 0 246 l 1
EndSplineSet
Validated: 5
EndChar

StartChar: m
Encoding: 109 109 12
Width: 600
Flags: HW
LayerCount: 2
Fore
SplineSet
288.6484375 657.536132812 m 5
 508.677734375 547.522460938 l 5
 260.473632812 51.115234375 l 5
 40.4443359375 161.129882812 l 5
 288.6484375 657.536132812 l 5
40.4443359375 161.129882812 m 5
 260.473632812 51.115234375 l 5
 234.458984375 2.0859375 l 5
 14.4306640625 112.100585938 l 5
 40.4443359375 161.129882812 l 5
501 801 m 1
 501 555 l 1
 0 555 l 1
 0 801 l 1
 501 801 l 1
EndSplineSet
Validated: 5
EndChar

StartChar: n
Encoding: 110 110 13
Width: 600
Flags: HW
LayerCount: 2
Fore
SplineSet
388.051757812 564.948242188 m 1
 501 294 l 1
 173.798828125 2.798828125 l 1
 -0.1494140625 176.747070312 l 1
 388.051757812 564.948242188 l 1
258 552 m 1
 504 552 l 1
 501 294 l 1
 255 294 l 1
 258 552 l 1
504 798 m 1
 504 552 l 1
 0 555 l 1
 0 801 l 1
 504 798 l 1
EndSplineSet
Validated: 5
EndChar

StartChar: o
Encoding: 111 111 14
Width: 600
Flags: HW
LayerCount: 2
Fore
SplineSet
389 588 m 5
 562.948242188 414.051757812 l 5
 174.747070312 25.8505859375 l 5
 0.798828125 199.798828125 l 5
 389 588 l 5
1.0517578125 628.051757812 m 1
 175 802 l 1
 563.201171875 413.798828125 l 1
 389.252929688 239.850585938 l 1
 1.0517578125 628.051757812 l 1
EndSplineSet
Validated: 5
EndChar

StartChar: p
Encoding: 112 112 15
Width: 600
Flags: HW
LayerCount: 2
Fore
SplineSet
247 554 m 1
 247 800 l 1
 505 797 l 1
 505 551 l 1
 247 554 l 1
1 800 m 1
 247 800 l 1
 246 246 l 5
 0 246 l 5
 1 800 l 1
0 246 m 1
 246 246 l 1
 246 0 l 1
 0 0 l 1
 0 246 l 1
EndSplineSet
Validated: 5
EndChar

StartChar: q
Encoding: 113 113 16
Width: 600
Flags: HW
LayerCount: 2
Fore
SplineSet
2 552 m 1
 504 552 l 1
 501 246 l 5
 -1 246 l 5
 2 552 l 1
504 798 m 1
 504 552 l 1
 0 555 l 1
 0 801 l 1
 504 798 l 1
0 246 m 1
 246 246 l 1
 246 0 l 1
 0 0 l 1
 0 246 l 1
EndSplineSet
Validated: 5
EndChar

StartChar: r
Encoding: 114 114 17
Width: 600
Flags: HW
LayerCount: 2
Fore
SplineSet
250 545 m 1
 247 297 l 1
 508 299 l 1
 508 548 l 1
 250 545 l 1
0 0 m 1
 247 0 l 1
 247 803 l 1
 1 803 l 1
 0 0 l 1
EndSplineSet
Validated: 5
EndChar

StartChar: s
Encoding: 115 115 18
Width: 600
Flags: HW
LayerCount: 2
Fore
SplineSet
387.051757812 801.948242188 m 1
 561 628 l 1
 172.798828125 239.798828125 l 1
 -1.1494140625 413.747070312 l 1
 387.051757812 801.948242188 l 1
0 414 m 5
 246 414 l 5
 246 0 l 1
 0 0 l 1
 0 414 l 5
EndSplineSet
Validated: 5
EndChar

StartChar: t
Encoding: 116 116 19
Width: 600
Flags: HW
LayerCount: 2
Fore
SplineSet
257 544 m 1
 257 298 l 1
 -1 301 l 1
 -1 547 l 1
 257 544 l 1
503 298 m 1
 257 298 l 1
 260 802 l 1
 506 802 l 1
 503 298 l 1
0 300 m 5
 246 300 l 5
 246 0 l 1
 0 0 l 1
 0 300 l 5
EndSplineSet
Validated: 5
EndChar

StartChar: u
Encoding: 117 117 20
Width: 600
Flags: HW
LayerCount: 2
Fore
SplineSet
226 246 m 5
 501 246 l 1
 252.795898438 742.407226562 l 1
 32.7666015625 632.392578125 l 1
 226 246 l 5
32.7666015625 632.392578125 m 1
 252.795898438 742.407226562 l 1
 226.78125 791.436523438 l 1
 6.7529296875 681.421875 l 1
 32.7666015625 632.392578125 l 1
0 246 m 1
 501 246 l 1
 501 0 l 1
 0 0 l 1
 0 246 l 1
EndSplineSet
Validated: 5
EndChar

StartChar: v
Encoding: 118 118 21
Width: 600
Flags: HW
LayerCount: 2
Fore
SplineSet
0 801 m 1
 246 801 l 1
 246 246 l 5
 0 246 l 5
 0 801 l 1
0 246 m 1
 501 246 l 1
 501 0 l 1
 0 0 l 1
 0 246 l 1
EndSplineSet
Validated: 5
EndChar

StartChar: x
Encoding: 120 120 22
Width: 600
Flags: HW
LayerCount: 2
Fore
SplineSet
307.903320312 689.668945312 m 1
 508.677734375 547.522460938 l 1
 199.978515625 106.557617188 l 1
 -0.794921875 248.705078125 l 1
 307.903320312 689.668945312 l 1
501 801 m 1
 501 555 l 1
 0 555 l 1
 0 801 l 1
 501 801 l 1
0 246 m 1
 501 246 l 1
 501 0 l 1
 0 0 l 1
 0 246 l 1
EndSplineSet
Validated: 5
EndChar

StartChar: y
Encoding: 121 121 23
Width: 600
Flags: HW
LayerCount: 2
Fore
SplineSet
258 552 m 1
 504 552 l 1
 503 246 l 5
 257 246 l 5
 258 552 l 1
504 798 m 1
 504 552 l 1
 0 555 l 1
 0 801 l 1
 504 798 l 1
0 246 m 1
 501 246 l 1
 501 0 l 1
 0 0 l 1
 0 246 l 1
EndSplineSet
Validated: 5
EndChar

StartChar: z
Encoding: 122 122 24
Width: 600
Flags: HW
LayerCount: 2
Fore
SplineSet
388.051757812 236.850585938 m 5
 501 507.798828125 l 5
 173.798828125 799 l 5
 -0.1494140625 625.051757812 l 5
 388.051757812 236.850585938 l 5
258 249.798828125 m 5
 504 249.798828125 l 5
 501 507.798828125 l 5
 255 507.798828125 l 5
 258 249.798828125 l 5
504 3.798828125 m 5
 504 249.798828125 l 5
 0 246.798828125 l 5
 0 0.798828125 l 5
 504 3.798828125 l 5
EndSplineSet
Validated: 5
EndChar

StartChar: w
Encoding: 119 119 25
Width: 600
Flags: HW
LayerCount: 2
Fore
SplineSet
257 544 m 5
 260 296 l 5
 -1 298 l 5
 -1 547 l 5
 257 544 l 5
507 -1 m 5
 260 -1 l 5
 260 802 l 5
 506 802 l 5
 507 -1 l 5
EndSplineSet
Validated: 5
EndChar

StartChar: one
Encoding: 49 49 26
Width: 375
Flags: HW
LayerCount: 2
Fore
SplineSet
158.275390625 799 m 4
 77.3310546875 799 1.0458984375 741.6171875 0 658.032226562 c 4
 -1.2177734375 560.727539062 69.4169921875 503.083007812 153.405273438 500.84765625 c 4
 247.15234375 498.352539062 301.940429688 564.469726562 301.940429688 655.537109375 c 4
 301.940429688 739.158203125 225.237304688 799 158.275390625 799 c 4
 155.83984375 716.665039062 l 5
 183.842773438 716.665039062 228.00390625 695.447265625 226.455078125 643.0625 c 4
 225.237304688 601.89453125 197.237304688 582.03125 153.405273438 583.182617188 c 4
 105.922851562 584.4296875 77.6826171875 616.956054688 80.35546875 658.032226562 c 4
 84.0078125 714.169921875 155.83984375 716.665039062 155.83984375 716.665039062 c 4
 155.83984375 716.665039062 163.14453125 799 158.275390625 799 c 4
0 913 m 1
 0 937 l 1
 375 937 l 1
 375 913 l 1
 0 913 l 1
EndSplineSet
Validated: 524325
EndChar

StartChar: two
Encoding: 50 50 27
Width: 375
Flags: HW
LayerCount: 2
Fore
SplineSet
0 913 m 5
 0 937 l 5
 375 937 l 5
 375 913 l 5
 0 913 l 5
0 801 m 1
 246 801 l 1
 246 252 l 1
 0 252 l 1
 0 801 l 1
EndSplineSet
Validated: 1
EndChar

StartChar: three
Encoding: 51 51 28
Width: 600
Flags: HW
LayerCount: 2
Fore
SplineSet
0 913 m 5
 0 937 l 5
 600 937 l 5
 600 913 l 5
 0 913 l 5
501 801 m 1
 501 555 l 1
 0 555 l 1
 0 801 l 1
 501 801 l 1
EndSplineSet
Validated: 1
EndChar

StartChar: four
Encoding: 52 52 29
Width: 600
Flags: HW
LayerCount: 2
Fore
SplineSet
0 913 m 5
 0 937 l 5
 600 937 l 5
 600 913 l 5
 0 913 l 5
258 552 m 1
 504 552 l 1
 501 294 l 1
 255 294 l 1
 258 552 l 1
504 798 m 1
 504 552 l 1
 0 555 l 1
 0 801 l 1
 504 798 l 1
EndSplineSet
Validated: 5
EndChar

StartChar: five
Encoding: 53 53 30
Width: 600
Flags: HW
LayerCount: 2
Fore
SplineSet
0 913 m 5
 0 937 l 5
 600 937 l 5
 600 913 l 5
 0 913 l 5
1.0517578125 628.051757812 m 1
 175 802 l 1
 563.201171875 413.798828125 l 1
 389.252929688 239.850585938 l 1
 1.0517578125 628.051757812 l 1
EndSplineSet
Validated: 1
EndChar

StartChar: six
Encoding: 54 54 31
Width: 600
Flags: HW
LayerCount: 2
Fore
SplineSet
0 913 m 5
 0 937 l 5
 600 937 l 5
 600 913 l 5
 0 913 l 5
247 554 m 1
 247 800 l 1
 505 797 l 1
 505 551 l 1
 247 554 l 1
1 800 m 1
 247 800 l 1
 244 296 l 1
 -2 296 l 1
 1 800 l 1
EndSplineSet
Validated: 5
EndChar

StartChar: seven
Encoding: 55 55 32
Width: 600
Flags: HW
LayerCount: 2
Fore
SplineSet
0 913 m 5
 0 937 l 5
 600 937 l 5
 600 913 l 5
 0 913 l 5
2 552 m 1
 504 552 l 1
 501 294 l 1
 -1 294 l 1
 2 552 l 1
504 798 m 1
 504 552 l 1
 0 555 l 1
 0 801 l 1
 504 798 l 1
EndSplineSet
Validated: 5
EndChar

StartChar: eight
Encoding: 56 56 33
Width: 600
Flags: HW
LayerCount: 2
Fore
SplineSet
0 912 m 5
 0 942 l 5
 600 942 l 5
 600 912 l 5
 0 912 l 5
247 542 m 1
 247 296 l 1
 505 299 l 1
 505 545 l 1
 247 542 l 1
1 296 m 1
 247 296 l 1
 244 800 l 1
 -2 800 l 1
 1 296 l 1
EndSplineSet
Validated: 5
EndChar

StartChar: nine
Encoding: 57 57 34
Width: 600
Flags: HW
LayerCount: 2
Fore
SplineSet
0 913 m 5
 0 937 l 5
 600 937 l 5
 600 913 l 5
 0 913 l 5
387.051757812 801.948242188 m 1
 561 628 l 1
 172.798828125 239.798828125 l 1
 -1.1494140625 413.747070312 l 1
 387.051757812 801.948242188 l 1
EndSplineSet
Validated: 1
EndChar

StartChar: zero
Encoding: 48 48 35
Width: 600
Flags: HW
LayerCount: 2
Fore
SplineSet
0 913 m 5
 0 937 l 5
 600 937 l 5
 600 913 l 5
 0 913 l 5
257 544 m 1
 257 298 l 1
 -1 301 l 1
 -1 547 l 1
 257 544 l 1
503 298 m 1
 257 298 l 1
 260 802 l 1
 506 802 l 1
 503 298 l 1
EndSplineSet
Validated: 5
EndChar

StartChar: A
Encoding: 65 65 36
Width: 375
Flags: HW
LayerCount: 2
Fore
SplineSet
158.275390625 799 m 4
 77.3310546875 799 1.0458984375 741.6171875 0 658.032226562 c 4
 -1.2177734375 560.727539062 69.4169921875 503.083007812 153.405273438 500.84765625 c 4
 247.15234375 498.352539062 301.940429688 564.469726562 301.940429688 655.537109375 c 4
 301.940429688 739.158203125 225.237304688 799 158.275390625 799 c 4
 155.83984375 716.665039062 l 5
 183.842773438 716.665039062 228.00390625 695.447265625 226.455078125 643.0625 c 4
 225.237304688 601.89453125 197.237304688 582.03125 153.405273438 583.182617188 c 4
 105.922851562 584.4296875 77.6826171875 616.956054688 80.35546875 658.032226562 c 4
 84.0078125 714.169921875 155.83984375 716.665039062 155.83984375 716.665039062 c 4
 155.83984375 716.665039062 163.14453125 799 158.275390625 799 c 4
EndSplineSet
Validated: 524325
EndChar

StartChar: B
Encoding: 66 66 37
Width: 375
Flags: HW
LayerCount: 2
Fore
SplineSet
0 801 m 5
 246 801 l 5
 246 252 l 5
 0 252 l 5
 0 801 l 5
EndSplineSet
Validated: 1
EndChar

StartChar: C
Encoding: 67 67 38
Width: 600
Flags: HW
LayerCount: 2
Fore
SplineSet
501 801 m 5
 501 555 l 5
 0 555 l 1
 0 801 l 1
 501 801 l 5
EndSplineSet
Validated: 1
EndChar

StartChar: D
Encoding: 68 68 39
Width: 600
Flags: HW
LayerCount: 2
Fore
SplineSet
258 552 m 1
 504 552 l 1
 501 294 l 1
 255 294 l 1
 258 552 l 1
504 798 m 1
 504 552 l 1
 0 555 l 1
 0 801 l 1
 504 798 l 1
EndSplineSet
Validated: 5
EndChar

StartChar: E
Encoding: 69 69 40
Width: 600
Flags: HW
LayerCount: 2
Fore
SplineSet
1.0517578125 628.051757812 m 5
 175 802 l 5
 563.201171875 413.798828125 l 5
 389.252929688 239.850585938 l 5
 1.0517578125 628.051757812 l 5
EndSplineSet
Validated: 1
EndChar

StartChar: F
Encoding: 70 70 41
Width: 600
Flags: HW
LayerCount: 2
Fore
SplineSet
247 554 m 5
 247 800 l 5
 505 797 l 5
 505 551 l 5
 247 554 l 5
1 800 m 5
 247 800 l 5
 244 296 l 5
 -2 296 l 5
 1 800 l 5
EndSplineSet
Validated: 5
EndChar

StartChar: G
Encoding: 71 71 42
Width: 600
Flags: HW
LayerCount: 2
Fore
SplineSet
2 552 m 5
 504 552 l 1
 501 294 l 1
 -1 294 l 5
 2 552 l 5
504 798 m 1
 504 552 l 1
 0 555 l 1
 0 801 l 1
 504 798 l 1
EndSplineSet
Validated: 5
EndChar

StartChar: H
Encoding: 72 72 43
Width: 600
Flags: HW
LayerCount: 2
Fore
SplineSet
247 542 m 1
 247 296 l 1
 505 299 l 1
 505 545 l 1
 247 542 l 1
1 296 m 1
 247 296 l 1
 244 800 l 1
 -2 800 l 1
 1 296 l 1
EndSplineSet
Validated: 5
EndChar

StartChar: I
Encoding: 73 73 44
Width: 600
Flags: HW
LayerCount: 2
Fore
SplineSet
387.051757812 801.948242188 m 5
 561 628 l 5
 172.798828125 239.798828125 l 5
 -1.1494140625 413.747070312 l 5
 387.051757812 801.948242188 l 5
EndSplineSet
Validated: 1
EndChar

StartChar: J
Encoding: 74 74 45
Width: 600
Flags: HW
LayerCount: 2
Fore
SplineSet
257 544 m 5
 257 298 l 5
 -1 301 l 5
 -1 547 l 5
 257 544 l 5
503 298 m 5
 257 298 l 5
 260 802 l 5
 506 802 l 5
 503 298 l 5
EndSplineSet
Validated: 5
EndChar

StartChar: K
Encoding: 75 75 46
Width: 375
Flags: HW
LayerCount: 2
Fore
SplineSet
158.275390625 298.15234375 m 4
 77.3310546875 298.15234375 1.0458984375 240.76953125 0 157.184570312 c 4
 -1.2177734375 59.8798828125 69.4169921875 2.2353515625 153.405273438 0 c 4
 247.15234375 -2.4951171875 301.940429688 63.6220703125 301.940429688 154.689453125 c 4
 301.940429688 238.310546875 225.237304688 298.15234375 158.275390625 298.15234375 c 4
 155.83984375 215.817382812 l 5
 183.842773438 215.817382812 228.00390625 194.599609375 226.455078125 142.21484375 c 4
 225.237304688 101.046875 197.237304688 81.18359375 153.405273438 82.3349609375 c 4
 105.922851562 83.58203125 77.6826171875 116.108398438 80.35546875 157.184570312 c 4
 84.0078125 213.322265625 155.83984375 215.817382812 155.83984375 215.817382812 c 4
 155.83984375 215.817382812 163.14453125 298.15234375 158.275390625 298.15234375 c 4
158.275390625 799 m 0
 77.3310546875 799 1.0458984375 741.6171875 0 658.032226562 c 0
 -1.2177734375 560.727539062 69.4169921875 503.083007812 153.405273438 500.84765625 c 0
 247.15234375 498.352539062 301.940429688 564.469726562 301.940429688 655.537109375 c 0
 301.940429688 739.158203125 225.237304688 799 158.275390625 799 c 0
 155.83984375 716.665039062 l 1
 183.842773438 716.665039062 228.00390625 695.447265625 226.455078125 643.0625 c 0
 225.237304688 601.89453125 197.237304688 582.03125 153.405273438 583.182617188 c 0
 105.922851562 584.4296875 77.6826171875 616.956054688 80.35546875 658.032226562 c 0
 84.0078125 714.169921875 155.83984375 716.665039062 155.83984375 716.665039062 c 0
 155.83984375 716.665039062 163.14453125 799 158.275390625 799 c 0
EndSplineSet
Validated: 524325
EndChar

StartChar: L
Encoding: 76 76 47
Width: 375
Flags: HW
LayerCount: 2
Fore
SplineSet
0 801 m 5
 246 801 l 5
 246 246 l 5
 0 246 l 5
 0 801 l 5
0 246 m 5
 246 246 l 5
 246 0 l 5
 0 0 l 5
 0 246 l 5
EndSplineSet
Validated: 5
EndChar

StartChar: M
Encoding: 77 77 48
Width: 600
Flags: HW
LayerCount: 2
Fore
SplineSet
288.6484375 657.536132812 m 5
 508.677734375 547.522460938 l 5
 260.473632812 51.115234375 l 5
 40.4443359375 161.129882812 l 5
 288.6484375 657.536132812 l 5
40.4443359375 161.129882812 m 5
 260.473632812 51.115234375 l 5
 234.458984375 2.0859375 l 5
 14.4306640625 112.100585938 l 5
 40.4443359375 161.129882812 l 5
501 801 m 1
 501 555 l 1
 0 555 l 1
 0 801 l 1
 501 801 l 1
EndSplineSet
Validated: 5
EndChar

StartChar: N
Encoding: 78 78 49
Width: 600
Flags: HW
LayerCount: 2
Fore
SplineSet
388.051757812 564.948242188 m 1
 501 294 l 1
 173.798828125 2.798828125 l 1
 -0.1494140625 176.747070312 l 1
 388.051757812 564.948242188 l 1
258 552 m 1
 504 552 l 1
 501 294 l 1
 255 294 l 1
 258 552 l 1
504 798 m 1
 504 552 l 1
 0 555 l 1
 0 801 l 1
 504 798 l 1
EndSplineSet
Validated: 5
EndChar

StartChar: O
Encoding: 79 79 50
Width: 600
Flags: HW
LayerCount: 2
Fore
SplineSet
389 588 m 5
 562.948242188 414.051757812 l 5
 174.747070312 25.8505859375 l 5
 0.798828125 199.798828125 l 5
 389 588 l 5
1.0517578125 628.051757812 m 1
 175 802 l 1
 563.201171875 413.798828125 l 1
 389.252929688 239.850585938 l 1
 1.0517578125 628.051757812 l 1
EndSplineSet
Validated: 5
EndChar

StartChar: P
Encoding: 80 80 51
Width: 600
Flags: HW
LayerCount: 2
Fore
SplineSet
247 554 m 1
 247 800 l 1
 505 797 l 1
 505 551 l 1
 247 554 l 1
1 800 m 1
 247 800 l 1
 246 246 l 5
 0 246 l 5
 1 800 l 1
0 246 m 1
 246 246 l 1
 246 0 l 1
 0 0 l 1
 0 246 l 1
EndSplineSet
Validated: 5
EndChar

StartChar: Q
Encoding: 81 81 52
Width: 600
Flags: HW
LayerCount: 2
Fore
SplineSet
2 552 m 1
 504 552 l 1
 501 246 l 5
 -1 246 l 5
 2 552 l 1
504 798 m 1
 504 552 l 1
 0 555 l 1
 0 801 l 1
 504 798 l 1
0 246 m 1
 246 246 l 1
 246 0 l 1
 0 0 l 1
 0 246 l 1
EndSplineSet
Validated: 5
EndChar

StartChar: R
Encoding: 82 82 53
Width: 600
Flags: HW
LayerCount: 2
Fore
SplineSet
250 545 m 1
 247 297 l 1
 508 299 l 1
 508 548 l 1
 250 545 l 1
0 0 m 1
 247 0 l 1
 247 803 l 1
 1 803 l 1
 0 0 l 1
EndSplineSet
Validated: 5
EndChar

StartChar: S
Encoding: 83 83 54
Width: 600
Flags: HW
LayerCount: 2
Fore
SplineSet
387.051757812 801.948242188 m 1
 561 628 l 1
 172.798828125 239.798828125 l 1
 -1.1494140625 413.747070312 l 1
 387.051757812 801.948242188 l 1
0 414 m 5
 246 414 l 5
 246 0 l 1
 0 0 l 1
 0 414 l 5
EndSplineSet
Validated: 5
EndChar

StartChar: T
Encoding: 84 84 55
Width: 600
Flags: HW
LayerCount: 2
Fore
SplineSet
257 544 m 1
 257 298 l 1
 -1 301 l 1
 -1 547 l 1
 257 544 l 1
503 298 m 1
 257 298 l 1
 260 802 l 1
 506 802 l 1
 503 298 l 1
0 300 m 5
 246 300 l 5
 246 0 l 1
 0 0 l 1
 0 300 l 5
EndSplineSet
Validated: 5
EndChar

StartChar: U
Encoding: 85 85 56
Width: 600
Flags: HW
LayerCount: 2
Fore
SplineSet
226 246 m 5
 501 246 l 1
 252.795898438 742.407226562 l 1
 32.7666015625 632.392578125 l 1
 226 246 l 5
32.7666015625 632.392578125 m 1
 252.795898438 742.407226562 l 1
 226.78125 791.436523438 l 1
 6.7529296875 681.421875 l 1
 32.7666015625 632.392578125 l 1
0 246 m 1
 501 246 l 1
 501 0 l 1
 0 0 l 1
 0 246 l 1
EndSplineSet
Validated: 5
EndChar

StartChar: V
Encoding: 86 86 57
Width: 600
Flags: HW
LayerCount: 2
Fore
SplineSet
0 801 m 1
 246 801 l 1
 246 246 l 5
 0 246 l 5
 0 801 l 1
0 246 m 1
 501 246 l 1
 501 0 l 1
 0 0 l 1
 0 246 l 1
EndSplineSet
Validated: 5
EndChar

StartChar: W
Encoding: 87 87 58
Width: 600
Flags: HW
LayerCount: 2
Fore
SplineSet
257 544 m 5
 260 296 l 5
 -1 298 l 5
 -1 547 l 5
 257 544 l 5
507 -1 m 5
 260 -1 l 5
 260 802 l 5
 506 802 l 5
 507 -1 l 5
EndSplineSet
Validated: 5
EndChar

StartChar: X
Encoding: 88 88 59
Width: 600
Flags: HW
LayerCount: 2
Fore
SplineSet
307.903320312 689.668945312 m 1
 508.677734375 547.522460938 l 1
 199.978515625 106.557617188 l 1
 -0.794921875 248.705078125 l 1
 307.903320312 689.668945312 l 1
501 801 m 1
 501 555 l 1
 0 555 l 1
 0 801 l 1
 501 801 l 1
0 246 m 1
 501 246 l 1
 501 0 l 1
 0 0 l 1
 0 246 l 1
EndSplineSet
Validated: 5
EndChar

StartChar: Y
Encoding: 89 89 60
Width: 600
Flags: HW
LayerCount: 2
Fore
SplineSet
258 552 m 1
 504 552 l 1
 503 246 l 5
 257 246 l 5
 258 552 l 1
504 798 m 1
 504 552 l 1
 0 555 l 1
 0 801 l 1
 504 798 l 1
0 246 m 1
 501 246 l 1
 501 0 l 1
 0 0 l 1
 0 246 l 1
EndSplineSet
Validated: 5
EndChar

StartChar: Z
Encoding: 90 90 61
Width: 600
Flags: HW
LayerCount: 2
Fore
SplineSet
388.051757812 236.850585938 m 5
 501 507.798828125 l 5
 173.798828125 799 l 5
 -0.1494140625 625.051757812 l 5
 388.051757812 236.850585938 l 5
258 249.798828125 m 5
 504 249.798828125 l 5
 501 507.798828125 l 5
 255 507.798828125 l 5
 258 249.798828125 l 5
504 3.798828125 m 5
 504 249.798828125 l 5
 0 246.798828125 l 5
 0 0.798828125 l 5
 504 3.798828125 l 5
EndSplineSet
Validated: 5
EndChar

StartChar: period
Encoding: 46 46 62
Width: 600
Flags: HW
LayerCount: 2
Fore
SplineSet
258 259 m 5
 504 259 l 5
 501 1 l 5
 255 1 l 5
 258 259 l 5
504 505 m 5
 504 259 l 5
 0 262 l 5
 0 508 l 5
 504 505 l 5
EndSplineSet
Validated: 5
EndChar

StartChar: parenleft
Encoding: 40 40 63
Width: 600
Flags: HW
LayerCount: 2
Fore
SplineSet
0 249 m 5
 502 249 l 5
 499 555 l 5
 -3 555 l 5
 0 249 l 5
502 3 m 5
 502 249 l 5
 -2 246 l 5
 -2 0 l 5
 502 3 l 5
-2 555 m 5
 244 555 l 5
 244 801 l 5
 -2 801 l 5
 -2 555 l 5
EndSplineSet
Validated: 5
EndChar

StartChar: parenright
Encoding: 41 41 64
Width: 600
Flags: HW
LayerCount: 2
Fore
SplineSet
501 250 m 5
 -1 250 l 5
 2 556 l 5
 504 556 l 5
 501 250 l 5
-1 4 m 5
 -1 250 l 5
 503 247 l 5
 503 1 l 5
 -1 4 l 5
503 556 m 5
 257 556 l 5
 257 802 l 5
 503 802 l 5
 503 556 l 5
EndSplineSet
Validated: 5
EndChar

StartChar: numbersign
Encoding: 35 35 66
Width: 600
Flags: HW
LayerCount: 2
Fore
SplineSet
501 802 m 5
 255 802 l 5
 255 247 l 5
 501 247 l 5
 501 802 l 5
501 247 m 5
 0 247 l 5
 0 1 l 5
 501 1 l 5
 501 247 l 5
EndSplineSet
Validated: 5
EndChar

StartChar: colon
Encoding: 58 58 67
Width: 1000
Flags: H
LayerCount: 2
Fore
SplineSet
718.25 621.25 m 2
 727.5 620.5 741 617.75 748 615.25 c 0
 755.25 612.5 766.75 605.25 773.75 599.25 c 0
 781.25 592.75 788.5 583.5 791.75 576 c 0
 794.75 569.25 801.25 550.25 806.25 533.75 c 0
 812.75 512.25 815.75 497 816.75 480 c 0
 817.75 465.25 817 450 815.25 440 c 0
 813.5 431 809 417.75 805.5 410.25 c 0
 801.75 402.75 792 389.25 783.5 380.25 c 0
 775.25 371.25 762.25 359.75 754.75 354.75 c 0
 747.25 350 735 343.5 727.5 340.5 c 0
 720 337.5 706 333.25 696.25 331.25 c 0
 686.5 329.25 667.5 327.5 653.75 327.5 c 0
 634.5 327.5 625.5 328.75 615 332.75 c 0
 607.5 335.5 598.5 340.25 595.25 343.25 c 0
 592 346.25 585 354 579.75 360.5 c 0
 573.75 368 570 375 570 379.25 c 0
 570 383.25 567.25 397 564 410 c 0
 560.75 423 556.5 447.25 555 463.75 c 0
 552.75 486 552.75 499.25 554.75 515 c 0
 556.25 526.75 559.25 541.75 561.75 548.75 c 0
 564.75 558 569.75 565 581 575.75 c 0
 589.5 583.5 602.5 593.25 610 597.25 c 0
 617.5 601.25 631.5 606.75 641.25 609.75 c 0
 651 612.5 668.25 616.5 680 618.5 c 0
 691.75 620.75 708.75 621.75 718 621.25 c 2
 718.25 621.25 l 2
661.5 575.75 m 0
 651.75 573.5 638.75 569.25 632 566 c 0
 625.5 562.75 619.75 558.75 619 557.5 c 0
 618.25 556 624.25 555 634.5 555 c 0
 644 555 657.75 553.25 665.25 551 c 0
 672.75 548.75 681.75 545 685.25 543 c 0
 688.75 540.75 698.5 531.75 707.25 522.75 c 0
 716.5 513 723.75 502.75 725.25 497.5 c 0
 726.75 492.75 727.75 478 727.75 465 c 0
 727.75 452 726 434.5 724 426.25 c 0
 722 418 717.5 407 714 401.75 c 0
 710.5 396.75 703.75 389.5 699 385.5 c 0
 694.25 381.75 684.5 375.5 677.25 371.75 c 2
 664 364.75 l 1
 685.25 367.25 699.25 370.75 709 374.25 c 0
 718.75 377.75 730.5 383.5 735.25 387 c 0
 740 390.75 749.5 399.25 756.25 406.25 c 0
 762.75 413 770.75 423.75 773.75 430 c 0
 778.25 439.5 779 445.5 778.75 470 c 0
 778.75 496.75 778 501 768.25 530 c 0
 762.5 547.25 756 564 753.5 567.25 c 0
 751 570.75 744.5 575.5 739 578 c 0
 732 581 723.25 582.25 709 582.25 c 0
 698 582 686.75 581.5 684 580.75 c 0
 681.25 580.25 671.25 578 661.5 575.75 c 0
797 299.75 m 0
 810.25 300 819 298.5 829.5 294.5 c 0
 837.25 291.25 848.75 284.25 855 278.5 c 0
 861.5 273 870.25 261 875 252.25 c 0
 879.75 243.5 886.25 228.25 889.5 218.75 c 0
 892.75 208.75 896 192 896.75 180 c 0
 897.75 168.25 897 147.5 895.5 133.75 c 0
 893.5 117.25 890.5 104 886.25 95 c 0
 882.75 87.5 880.25 78.5 880.5 75 c 0
 880.5 71.5 880.75 66.25 880.5 63.25 c 0
 880.25 59.75 877.25 55.75 872.75 53.25 c 0
 868.5 50.75 864.5 46.5 863.5 43.75 c 0
 862.5 41 855 30.25 846.5 20 c 0
 838 9.75 829 -2 826.25 -6 c 0
 823.75 -10 813.75 -18.5 804 -24.5 c 0
 794.25 -30.75 780.25 -38.75 772.75 -42.75 c 0
 765.25 -46.5 736 -56.5 707.75 -65 c 0
 679.5 -73.25 645.75 -81.75 632.75 -83.75 c 0
 619.75 -85.75 587.5 -90.25 561.5 -93.75 c 0
 520.5 -99 504.5 -100 444.5 -100 c 0
 395.75 -100 368 -99 350.25 -96.25 c 0
 336.5 -94.25 311.5 -88.5 294.5 -83.5 c 0
 277.75 -78.75 253.5 -70.75 217.75 -57.5 c 1
 210.75 -62.5 l 2
 207 -65.5 201.25 -67.75 197.75 -67.5 c 0
 194.25 -67.5 189 -65.75 185.75 -63.75 c 0
 182.75 -61.75 180.25 -58.25 180.25 -56.25 c 0
 180.25 -54.25 175.25 -46.25 169 -38.75 c 0
 162.75 -31.25 154.25 -19.25 150.25 -12.5 c 0
 146 -5.5 141 7 138.75 15.75 c 0
 136 26.25 134.5 42.5 134.25 66.25 c 0
 134 98.25 134.5 102.25 139.75 112.5 c 0
 143 118.75 150.25 128.5 156 134.5 c 0
 161.75 140.5 175.5 151.25 186.5 158.5 c 0
 197.5 165.75 210.5 173.25 215.25 175 c 0
 220 176.75 241.5 178.5 262.75 179.25 c 0
 288.25 180.25 308 179.5 320.25 177.5 c 0
 330.5 175.75 345.5 171.75 353.25 168.5 c 0
 361.25 165.25 381 155.5 426.5 131.25 c 1
 450.25 131.75 l 2
 463.25 132 477.25 132.25 481.5 132.25 c 0
 485.5 132.5 501.25 131.5 516.5 130.5 c 0
 532.75 129.25 546.5 129.25 550.25 130.75 c 0
 553.75 132 572.25 144 591.5 157.5 c 0
 610.75 170.75 632.5 187.25 640 194 c 0
 647.5 200.75 661.5 215.75 671.25 227.5 c 0
 681 239.25 693.5 253.5 699 259.5 c 0
 704.5 265.5 714 273.5 720.25 277.5 c 0
 726.5 281.5 736.5 286.5 742.75 288.75 c 0
 749 291 759.5 294.25 766.5 296.25 c 0
 773.25 298.25 787.25 299.75 797 299.75 c 0
721.5 226 m 0
 710.5 214 689.5 191.75 674.5 177 c 0
 656.5 158.75 648.75 149.5 650.75 148.25 c 0
 652.5 147 665 123.25 678.5 95 c 0
 692 66.75 708.5 32.5 715.5 18.75 c 0
 722.25 5 727.75 -8.25 727.75 -10.5 c 0
 727.75 -13 729.75 -15.75 732 -16.5 c 0
 734.5 -17.25 741 -16.25 746.5 -13.75 c 0
 752 -11.5 764.75 -4.25 775 2 c 0
 785.25 8.5 796.5 17.75 800 22.5 c 0
 803.5 27.25 810.75 36.25 816.25 42.5 c 0
 821.75 48.75 828.25 58.5 830.75 64.5 c 0
 834.75 73.75 834.75 75.75 831.75 82 c 0
 830 85.75 819.25 100 808.25 113.75 c 0
 797.25 127.5 774.5 152.25 757.75 168.75 c 0
 741 185.25 726.25 201.25 725 204.5 c 0
 723.5 208 723.75 212.25 725.25 216.25 c 0
 726.5 219.75 730.25 224.25 733.25 226.5 c 0
 737.25 229 741.5 229.75 746.5 228.75 c 0
 751.75 227.5 765.25 215.75 790.25 190.25 c 0
 810.25 170.25 832.75 145.5 840.25 135.5 c 2
 854 117.25 l 1
 857.25 130 857.75 149.5 857.25 168.75 c 2
 856.5 203.75 l 1
 837.25 243.25 833.25 248.75 824.75 254.5 c 0
 816.5 259.75 811 261.5 798 261.75 c 0
 785 262.25 777.25 261 761.5 255.25 c 0
 742.75 248.25 740.25 246.5 721.5 226 c 0
209.5 129.25 m 0
 202.5 124.75 192.25 117 186.75 112.25 c 0
 181.5 107.5 175.5 100.25 173.25 96.25 c 0
 170.25 90.25 169.75 83.25 171 61.25 c 0
 172 46 174.25 28.25 176.25 21.25 c 0
 179 12.25 183 5.75 191.25 -1.75 c 0
 197.5 -7.75 203.75 -12.5 205.25 -12.5 c 0
 206.5 -12.5 222 -18 239.5 -25 c 0
 257.25 -31.75 287.25 -42.25 306.5 -47.75 c 2
 341.5 -58.25 l 1
 462.75 -60 l 1
 462.75 90 l 1
 448.25 91.75 437.25 93 429 94 c 0
 417.25 95.25 406.75 99.5 381.5 112.5 c 2
 349 129.5 l 1
 344 101.75 339.5 74 336 50 c 0
 332.75 26 329 1.25 328 -5 c 0
 327 -11.25 324.25 -20 322 -24.25 c 0
 319.75 -28.75 315.25 -33.75 312 -35.25 c 0
 309 -36.75 303.5 -37.25 299.5 -36.5 c 0
 295.75 -35.75 291 -32.5 288.75 -29.25 c 0
 285.75 -24.75 285.5 -21.25 287.5 -10 c 0
 288.75 -2.5 291.5 12.75 293.75 23.75 c 0
 295.75 34.75 300.5 64 304.25 88.75 c 0
 308 113.5 310.25 135.75 309.25 138.25 c 0
 308 142 304 142.5 274.5 142.25 c 0
 256.5 142 237.25 141 232 139.75 c 0
 227 138.5 216.75 133.75 209.5 129.25 c 0
567.75 96.75 m 0
 558 92 553 91.25 529.5 92 c 2
 502.75 92.5 l 1
 502.75 -60 l 1
 520.25 -60 550.75 -56.75 582 -52.5 c 0
 619.5 -47.75 648 -42.75 665.25 -37.5 c 0
 679.75 -33.25 691.75 -29.75 692.25 -29.25 c 0
 692.5 -29 691.25 -24.25 689.25 -18.75 c 0
 687.5 -13.25 675.75 13.25 663.25 40 c 0
 651 66.75 636 98 630 109.5 c 0
 624 120.75 618.5 130 617.75 130 c 0
 617 129.75 608 123.5 597.75 116 c 0
 587.5 108.5 574 99.75 567.75 96.75 c 0
331.5 598.75 m 1
 347.75 589.5 l 2
 356.75 584.5 370 574 377.5 565.75 c 0
 384.75 557.75 394.75 544 399.5 535 c 0
 404.5 526 410.75 514.25 413.5 508.75 c 0
 418.5 499.25 418.5 497 416 467.5 c 0
 414.5 450.25 411.5 431.75 409.25 426.25 c 0
 407 420.75 398.75 404 390.75 388.75 c 0
 377.25 362.75 375.5 360.75 360.25 350.5 c 0
 351.25 344.75 331.75 333 316.5 324.5 c 0
 300 315.5 285 308.75 279 308 c 0
 271.5 307.25 267.25 308.25 262 312.25 c 0
 256.75 316.5 253 317.25 244.5 316 c 0
 238.75 315.25 229.5 315.5 224 316.5 c 0
 216.5 318 210 322.25 198.25 333.5 c 0
 189.5 342 180.25 353.25 177.75 358.75 c 0
 175.25 364.25 171.75 377.75 170 388.75 c 0
 168 401.5 167.5 421 168.5 442.5 c 0
 169.25 465 171.5 483 175.25 496.25 c 0
 178 507.25 183.75 525.75 188 537.5 c 0
 192.25 549.25 197.25 561.5 199 565 c 0
 200.75 568.5 205.25 575 209.25 579.75 c 0
 213.25 584.25 219.75 589.75 224 592 c 0
 228 594 237 596.5 244 597.75 c 0
 250.75 598.75 273.25 599.5 331.5 598.75 c 1
243.25 558.75 m 0
 240.25 558 236 554.25 234 550 c 0
 232 545.75 230.25 542 230.25 541.25 c 0
 230.25 540.5 241 540 254 540 c 0
 267 540 280.5 538.75 284 537.5 c 0
 287.5 536 298.75 526.25 309 515.5 c 0
 319.5 505 328.75 493.5 329.75 490 c 0
 330.75 486.5 331.5 472.5 331.5 458.75 c 0
 331.5 440.25 330.25 430.75 327 422.5 c 0
 324.25 416.25 320 408.25 317.5 404.25 c 0
 315 400.5 308.5 395.25 303.25 392.75 c 0
 298.25 390.25 284.25 385.75 272 382.75 c 0
 260 379.75 242 377.5 231.5 377.5 c 0
 220.75 377.5 212.75 376.5 212.75 375 c 0
 212.75 373.5 216 368.5 220.25 363.75 c 0
 227.5 355.25 228.5 355 244.5 355 c 0
 254 355 266 353.5 271.5 351.5 c 2
 281.5 347.75 l 1
 328 375 343.25 384.75 345.5 387 c 0
 347.75 389.5 355.5 402.5 362.5 416.25 c 0
 374.5 439.5 375.75 443 377.75 466.75 c 0
 380.25 491.25 380 493 374.5 501.75 c 0
 371.5 507 367 515.25 364.5 520 c 0
 362.25 524.75 356.5 533.25 352 538.5 c 0
 347.75 544 338.25 551.5 331.5 555.25 c 0
 320 562 317.25 562.5 294 562 c 0
 280.25 561.75 264.5 561.25 259 560.75 c 0
 253.5 560.25 246.5 559.25 243.25 558.75 c 0
EndSplineSet
Validated: 524321
EndChar

StartChar: quotesingle
Encoding: 39 39 68
Width: 1000
Flags: H
LayerCount: 2
Fore
SplineSet
157 84 m 28
 95 120 81 184 94 255 c 24
 102 302 156 339 199 318 c 24
 260 289 219 192 280 165 c 24
 365 127 425 167 517 177 c 24
 611 187 684 155 757 216 c 24
 802 254 710 317 742 366 c 24
 768 407 845 427 865 384 c 24
 910 288 942 179 862 111 c 24
 742 9 621 48 463 42 c 24
 343 37 261 24 157 84 c 28
538 690 m 1
 643 690 l 1
 643 384 l 1
 538 384 l 1
 538 690 l 1
313 684 m 1
 400 684 l 1
 400 408 l 1
 313 408 l 1
 313 684 l 1
EndSplineSet
Validated: 33
EndChar
